<?xml version="1.0" standalone="no"?><!DOCTYPE svg PUBLIC "-//W3C//DTD SVG 1.1//EN" "http://www.w3.org/Graphics/SVG/1.1/DTD/svg11.dtd"><svg t="1610005599907" class="icon" viewBox="0 0 1024 1024" version="1.1" xmlns="http://www.w3.org/2000/svg" p-id="3182" xmlns:xlink="http://www.w3.org/1999/xlink" width="200" height="200"><defs><style type="text/css"></style></defs><path d="M224 64C171.264 64 128 107.264 128 160V768h13.44c14.08 35.52 42.304 64 82.56 64H256v64h13.44c14.08 35.52 42.304 64 82.56 64H896v-64H352a31.616 31.616 0 0 1-32-32c0-17.984 14.016-32 32-32H896V192h-128V64z m0 64H704v64H352C299.264 192 256 235.264 256 288V640h-32c-11.264 0-22.016 2.56-32 6.016V160c0-17.984 14.016-32 32-32z m128 128H832v512H352c-11.264 0-22.016 2.56-32 6.016V288c0-17.984 14.016-32 32-32zM384 384v64h384V384z m-160 320H256v64h-32a31.616 31.616 0 0 1-32-32c0-17.984 14.016-32 32-32z" fill="#0070C4" p-id="3183"></path></svg>